{
  "accessors": [
    {
      "bufferView": 2,
      "componentType": 5126,
      "count": 148,
      "max": [
        312.9359130859375,
        881.6804809570313,
        301.0854797363281
      ],
      "min": [
        -312.9359130859375,
        223.77175903320313,
        -256.1596984863281
      ],
      "type": "VEC3"
    },
    {
      "bufferView": 2,
      "byteOffset": 1776,
      "componentType": 5126,
      "count": 148,
      "max": [
        0.9170544147491455,
        1.0,
        1.0
      ],
      "min": [
        -0.9170544743537903,
        -1.0,
        -0.9999987483024597
      ],
      "type": "VEC3"
    },
    {
      "bufferView": 3,
      "componentType": 5126,
      "count": 148,
      "max": [
        0.9999995827674866,
        0.9919070601463318,
        0.6567923426628113,
        1.0
      ],
      "min": [
        -1.0,
        -0.9878939390182495,
        -0.6730051040649414,
        1.0
      ],
      "type": "VEC4"
    },
    {
      "bufferView": 1,
      "componentType": 5126,
      "count": 148,
      "max": [
        0.78816157579422,
        0.16731221973896027
      ],
      "min": [
        0.003914979286491871,
        0.003913151100277901
      ],
      "type": "VEC2"
    },
    {
      "bufferView": 0,
      "componentType": 5125,
      "count": 516,
      "type": "SCALAR"
    },
    {
      "bufferView": 2,
      "byteOffset": 3552,
      "componentType": 5126,
      "count": 1552,
      "max": [
        281.1847229003906,
        847.7910766601563,
        301.114501953125
      ],
      "min": [
        -281.1847229003906,
        261.594970703125,
        -224.9186248779297
      ],
      "type": "VEC3"
    },
    {
      "bufferView": 2,
      "byteOffset": 22176,
      "componentType": 5126,
      "count": 1552,
      "max": [
        1.0,
        0.911958634853363,
        1.0
      ],
      "min": [
        -1.0,
        -1.0,
        -1.0
      ],
      "type": "VEC3"
    },
    {
      "bufferView": 3,
      "byteOffset": 2368,
      "componentType": 5126,
      "count": 1552,
      "max": [
        1.0,
        0.9648570418357849,
        1.0,
        1.0
      ],
      "min": [
        -0.9910470247268677,
        -0.9643396735191345,
        -1.0,
        1.0
      ],
      "type": "VEC4"
    },
    {
      "bufferView": 1,
      "byteOffset": 1184,
      "componentType": 5126,
      "count": 1552,
      "max": [
        0.9953780770301819,
        0.55585777759552
      ],
      "min": [
        0.004100501537322998,
        0.0039060539565980434
      ],
      "type": "VEC2"
    },
    {
      "bufferView": 0,
      "byteOffset": 2064,
      "componentType": 5125,
      "count": 2328,
      "type": "SCALAR"
    },
    {
      "bufferView": 2,
      "byteOffset": 40800,
      "componentType": 5126,
      "count": 44,
      "max": [
        116.8471450805664,
        713.9540405273438,
        270.1197509765625
      ],
      "min": [
        -116.8471450805664,
        155.1891326904297,
        138.5319061279297
      ],
      "type": "VEC3"
    },
    {
      "bufferView": 2,
      "byteOffset": 41328,
      "componentType": 5126,
      "count": 44,
      "max": [
        0.0,
        4.1089318614240256e-08,
        1.0
      ],
      "min": [
        0.0,
        -2.5410571424799855e-07,
        1.0
      ],
      "type": "VEC3"
    },
    {
      "bufferView": 3,
      "byteOffset": 27200,
      "componentType": 5126,
      "count": 44,
      "max": [
        0.9568952918052673,
        1.0,
        2.54105742669708e-07,
        1.0
      ],
      "min": [
        0.0,
        -0.29097217321395874,
        0.0,
        1.0
      ],
      "type": "VEC4"
    },
    {
      "bufferView": 1,
      "byteOffset": 13600,
      "componentType": 5126,
      "count": 44,
      "max": [
        0.8301962614059448,
        0.9772481918334961
      ],
      "min": [
        0.003907918930053711,
        0.1839090883731842
      ],
      "type": "VEC2"
    },
    {
      "bufferView": 0,
      "byteOffset": 11376,
      "componentType": 5125,
      "count": 108,
      "type": "SCALAR"
    },
    {
      "bufferView": 2,
      "byteOffset": 41856,
      "componentType": 5126,
      "count": 122,
      "max": [
        66.08970642089844,
        219.89283752441406,
        139.7807159423828
      ],
      "min": [
        -66.08970642089844,
        -1.4052510261535645,
        129.86724853515625
      ],
      "type": "VEC3"
    },
    {
      "bufferView": 2,
      "byteOffset": 43320,
      "componentType": 5126,
      "count": 122,
      "max": [
        0.9999991059303284,
        1.0,
        1.0
      ],
      "min": [
        -0.9999926686286926,
        -1.0,
        -1.0
      ],
      "type": "VEC3"
    },
    {
      "bufferView": 3,
      "byteOffset": 27904,
      "componentType": 5126,
      "count": 122,
      "max": [
        1.0,
        1.0,
        0.9998944997787476,
        1.0
      ],
      "min": [
        -1.0,
        -0.9999926686286926,
        -0.9937089681625366,
        1.0
      ],
      "type": "VEC4"
    },
    {
      "bufferView": 1,
      "byteOffset": 13952,
      "componentType": 5126,
      "count": 122,
      "max": [
        0.8866778612136841,
        0.2724305987358093
      ],
      "min": [
        0.18484988808631897,
        0.0039049964398145676
      ],
      "type": "VEC2"
    },
    {
      "bufferView": 0,
      "byteOffset": 11808,
      "componentType": 5125,
      "count": 444,
      "type": "SCALAR"
    },
    {
      "bufferView": 2,
      "byteOffset": 44784,
      "componentType": 5126,
      "count": 188,
      "max": [
        280.4531555175781,
        870.0719604492188,
        264.9994201660156
      ],
      "min": [
        -280.4531555175781,
        -1.251530647277832,
        -278.07177734375
      ],
      "type": "VEC3"
    },
    {
      "bufferView": 2,
      "byteOffset": 47040,
      "componentType": 5126,
      "count": 188,
      "max": [
        1.0,
        0.6132142543792725,
        1.0
      ],
      "min": [
        -1.0,
        -1.0,
        -1.0
      ],
      "type": "VEC3"
    },
    {
      "bufferView": 3,
      "byteOffset": 29856,
      "componentType": 5126,
      "count": 188,
      "max": [
        1.0,
        1.0,
        1.0,
        1.0
      ],
      "min": [
        -1.0,
        -1.0,
        -1.0,
        1.0
      ],
      "type": "VEC4"
    },
    {
      "bufferView": 1,
      "byteOffset": 14928,
      "componentType": 5126,
      "count": 188,
      "max": [
        0.995979368686676,
        0.47714683413505554
      ],
      "min": [
        0.05932176858186722,
        0.13793522119522095
      ],
      "type": "VEC2"
    },
    {
      "bufferView": 0,
      "byteOffset": 13584,
      "componentType": 5125,
      "count": 390,
      "type": "SCALAR"
    },
    {
      "bufferView": 2,
      "byteOffset": 49296,
      "componentType": 5126,
      "count": 6574,
      "max": [
        295.4391784667969,
        854.2404174804688,
        331.5077209472656
      ],
      "min": [
        -295.4391784667969,
        -2.520895004272461,
        -272.714599609375
      ],
      "type": "VEC3"
    },
    {
      "bufferView": 2,
      "byteOffset": 128184,
      "componentType": 5126,
      "count": 6574,
      "max": [
        1.0,
        1.0,
        1.0
      ],
      "min": [
        -1.0,
        -1.0,
        -1.0
      ],
      "type": "VEC3"
    },
    {
      "bufferView": 3,
      "byteOffset": 32864,
      "componentType": 5126,
      "count": 6574,
      "max": [
        1.0,
        1.0,
        1.0,
        1.0
      ],
      "min": [
        -1.0,
        -1.0,
        -1.0,
        -1.0
      ],
      "type": "VEC4"
    },
    {
      "bufferView": 1,
      "byteOffset": 16432,
      "componentType": 5126,
      "count": 6574,
      "max": [
        0.9956167340278625,
        0.9775093793869019
      ],
      "min": [
        0.0039039254188537598,
        0.0039035130757838488
      ],
      "type": "VEC2"
    },
    {
      "bufferView": 0,
      "byteOffset": 15144,
      "componentType": 5125,
      "count": 16380,
      "type": "SCALAR"
    },
    {
      "bufferView": 2,
      "byteOffset": 207072,
      "componentType": 5126,
      "count": 576,
      "max": [
        20.511266708374023,
        895.5394897460938,
        312.0791320800781
      ],
      "min": [
        -20.511266708374023,
        875.1771850585938,
        -256.4084167480469
      ],
      "type": "VEC3"
    },
    {
      "bufferView": 2,
      "byteOffset": 213984,
      "componentType": 5126,
      "count": 576,
      "max": [
        0.8730511665344238,
        0.9997469186782837,
        0.999860942363739
      ],
      "min": [
        -0.8730511665344238,
        -0.9997448921203613,
        -0.9998708367347717
      ],
      "type": "VEC3"
    },
    {
      "bufferView": 3,
      "byteOffset": 138048,
      "componentType": 5126,
      "count": 576,
      "max": [
        1.0,
        0.9951534271240234,
        0.9997467398643494,
        1.0
      ],
      "min": [
        -0.9999979138374329,
        -0.9998704195022583,
        -0.9997760653495789,
        1.0
      ],
      "type": "VEC4"
    },
    {
      "bufferView": 1,
      "byteOffset": 69024,
      "componentType": 5126,
      "count": 576,
      "max": [
        0.9461323618888855,
        0.7048123478889465
      ],
      "min": [
        0.18111424148082733,
        0.08103726804256439
      ],
      "type": "VEC2"
    },
    {
      "bufferView": 0,
      "byteOffset": 80664,
      "componentType": 5125,
      "count": 1404,
      "type": "SCALAR"
    },
    {
      "bufferView": 2,
      "byteOffset": 220896,
      "componentType": 5126,
      "count": 24,
      "max": [
        248.71156311035156,
        0.7316238880157471,
        328.55023193359375
      ],
      "min": [
        -248.71156311035156,
        -7.551056861877441,
        -291.318359375
      ],
      "type": "VEC3"
    },
    {
      "bufferView": 2,
      "byteOffset": 221184,
      "componentType": 5126,
      "count": 24,
      "max": [
        1.0,
        1.0,
        1.0
      ],
      "min": [
        -1.0,
        -1.0,
        -1.0
      ],
      "type": "VEC3"
    },
    {
      "bufferView": 3,
      "byteOffset": 147264,
      "componentType": 5126,
      "count": 24,
      "max": [
        0.7046374082565308,
        0.9750744700431824,
        1.0,
        1.0
      ],
      "min": [
        -0.778124988079071,
        -0.975080668926239,
        0.0,
        1.0
      ],
      "type": "VEC4"
    },
    {
      "bufferView": 1,
      "byteOffset": 73632,
      "componentType": 5126,
      "count": 24,
      "max": [
        0.9681130647659302,
        0.32181963324546814
      ],
      "min": [
        0.00434345006942749,
        0.003910228610038757
      ],
      "type": "VEC2"
    },
    {
      "bufferView": 0,
      "byteOffset": 86280,
      "componentType": 5125,
      "count": 36,
      "type": "SCALAR"
    },
    {
      "bufferView": 2,
      "byteOffset": 221472,
      "componentType": 5126,
      "count": 961,
      "max": [
        46.53884506225586,
        175.3880157470703,
        157.43894958496094
      ],
      "min": [
        -50.99950408935547,
        25.40247344970703,
        134.64144897460938
      ],
      "type": "VEC3"
    },
    {
      "bufferView": 2,
      "byteOffset": 233004,
      "componentType": 5126,
      "count": 961,
      "max": [
        1.0,
        1.0,
        1.0
      ],
      "min": [
        -1.0,
        -1.0,
        -1.0
      ],
      "type": "VEC3"
    },
    {
      "bufferView": 3,
      "byteOffset": 147648,
      "componentType": 5126,
      "count": 961,
      "max": [
        1.0,
        1.0,
        0.9998318552970886,
        1.0
      ],
      "min": [
        -1.0,
        -0.9999959468841553,
        -0.9999492764472961,
        1.0
      ],
      "type": "VEC4"
    },
    {
      "bufferView": 1,
      "byteOffset": 73824,
      "componentType": 5126,
      "count": 961,
      "max": [
        0.9330503344535828,
        0.9703841209411621
      ],
      "min": [
        0.0039052360225468874,
        0.004391416907310486
      ],
      "type": "VEC2"
    },
    {
      "bufferView": 0,
      "byteOffset": 86424,
      "componentType": 5125,
      "count": 4254,
      "type": "SCALAR"
    },
    {
      "bufferView": 2,
      "byteOffset": 244536,
      "componentType": 5126,
      "count": 25840,
      "max": [
        323.9356994628906,
        878.4421997070313,
        301.9564514160156
      ],
      "min": [
        -324.3275146484375,
        221.855712890625,
        -252.5115509033203
      ],
      "type": "VEC3"
    },
    {
      "bufferView": 2,
      "byteOffset": 554616,
      "componentType": 5126,
      "count": 25840,
      "max": [
        0.8872155547142029,
        0.8833118677139282,
        1.0
      ],
      "min": [
        -0.8872886896133423,
        -0.682909369468689,
        -1.0
      ],
      "type": "VEC3"
    },
    {
      "bufferView": 3,
      "byteOffset": 163024,
      "componentType": 5126,
      "count": 25840,
      "max": [
        1.0,
        0.924994170665741,
        1.0,
        1.0
      ],
      "min": [
        -0.9999995231628418,
        -0.9255127310752869,
        -1.0,
        1.0
      ],
      "type": "VEC4"
    },
    {
      "bufferView": 1,
      "byteOffset": 81512,
      "componentType": 5126,
      "count": 25840,
      "max": [
        0.9956808090209961,
        0.9759623408317566
      ],
      "min": [
        0.003901362419128418,
        0.15032735466957092
      ],
      "type": "VEC2"
    },
    {
      "bufferView": 0,
      "byteOffset": 103440,
      "componentType": 5125,
      "count": 45600,
      "type": "SCALAR"
    }
  ],
  "asset": {
    "extras": {
      "author": "Viktor_ (https://sketchfab.com/Viktor.Zhuravlev)",
      "license": "CC-BY-4.0 (http://creativecommons.org/licenses/by/4.0/)",
      "source": "https://sketchfab.com/3d-models/medivel-house-42befb4c8c5943e89c8ac2c35818c412",
      "title": "Medivel house"
    },
    "generator": "Sketchfab-15.65.0",
    "version": "2.0"
  },
  "bufferViews": [
    {
      "buffer": 0,
      "byteLength": 285840,
      "name": "floatBufferViews",
      "target": 34963
    },
    {
      "buffer": 0,
      "byteLength": 288232,
      "byteOffset": 285840,
      "byteStride": 8,
      "name": "floatBufferViews",
      "target": 34962
    },
    {
      "buffer": 0,
      "byteLength": 864696,
      "byteOffset": 574072,
      "byteStride": 12,
      "name": "floatBufferViews",
      "target": 34962
    },
    {
      "buffer": 0,
      "byteLength": 576464,
      "byteOffset": 1438768,
      "byteStride": 16,
      "name": "floatBufferViews",
      "target": 34962
    }
  ],
  "buffers": [
    {
      "byteLength": 2015232,
      "uri": "scene.bin"
    }
  ],
  "images": [
    {
      "uri": "textures/Scene_-_Root_baseColor.png"
    },
    {
      "uri": "textures/Scene_-_Root_metallicRoughness.png"
    },
    {
      "uri": "textures/Scene_-_Root_normal.png"
    }
  ],
  "materials": [
    {
      "doubleSided": true,
      "name": "Scene_-_Root",
      "normalTexture": {
        "index": 2
      },
      "occlusionTexture": {
        "index": 1
      },
      "pbrMetallicRoughness": {
        "baseColorTexture": {
          "index": 0
        },
        "metallicRoughnessTexture": {
          "index": 1
        }
      }
    }
  ],
  "meshes": [
    {
      "name": "Plane.001__0",
      "primitives": [
        {
          "attributes": {
            "NORMAL": 1,
            "POSITION": 0,
            "TANGENT": 2,
            "TEXCOORD_0": 3
          },
          "indices": 4,
          "material": 0,
          "mode": 4
        }
      ]
    },
    {
      "name": "Plane.003__0",
      "primitives": [
        {
          "attributes": {
            "NORMAL": 6,
            "POSITION": 5,
            "TANGENT": 7,
            "TEXCOORD_0": 8
          },
          "indices": 9,
          "material": 0,
          "mode": 4
        }
      ]
    },
    {
      "name": "Circle.002__0",
      "primitives": [
        {
          "attributes": {
            "NORMAL": 11,
            "POSITION": 10,
            "TANGENT": 12,
            "TEXCOORD_0": 13
          },
          "indices": 14,
          "material": 0,
          "mode": 4
        }
      ]
    },
    {
      "name": "Circle.003__0",
      "primitives": [
        {
          "attributes": {
            "NORMAL": 16,
            "POSITION": 15,
            "TANGENT": 17,
            "TEXCOORD_0": 18
          },
          "indices": 19,
          "material": 0,
          "mode": 4
        }
      ]
    },
    {
      "name": "Cube.019__0",
      "primitives": [
        {
          "attributes": {
            "NORMAL": 21,
            "POSITION": 20,
            "TANGENT": 22,
            "TEXCOORD_0": 23
          },
          "indices": 24,
          "material": 0,
          "mode": 4
        }
      ]
    },
    {
      "name": "Plane.012__0",
      "primitives": [
        {
          "attributes": {
            "NORMAL": 26,
            "POSITION": 25,
            "TANGENT": 27,
            "TEXCOORD_0": 28
          },
          "indices": 29,
          "material": 0,
          "mode": 4
        }
      ]
    },
    {
      "name": "Plane.033__0",
      "primitives": [
        {
          "attributes": {
            "NORMAL": 31,
            "POSITION": 30,
            "TANGENT": 32,
            "TEXCOORD_0": 33
          },
          "indices": 34,
          "material": 0,
          "mode": 4
        }
      ]
    },
    {
      "name": "Plane.036__0",
      "primitives": [
        {
          "attributes": {
            "NORMAL": 36,
            "POSITION": 35,
            "TANGENT": 37,
            "TEXCOORD_0": 38
          },
          "indices": 39,
          "material": 0,
          "mode": 4
        }
      ]
    },
    {
      "name": "Plane.041__0",
      "primitives": [
        {
          "attributes": {
            "NORMAL": 41,
            "POSITION": 40,
            "TANGENT": 42,
            "TEXCOORD_0": 43
          },
          "indices": 44,
          "material": 0,
          "mode": 4
        }
      ]
    },
    {
      "name": "plitka_low.018__0",
      "primitives": [
        {
          "attributes": {
            "NORMAL": 46,
            "POSITION": 45,
            "TANGENT": 47,
            "TEXCOORD_0": 48
          },
          "indices": 49,
          "material": 0,
          "mode": 4
        }
      ]
    }
  ],
  "nodes": [
    {
      "children": [
        1
      ],
      "matrix": [
        1.0,
        0.0,
        0.0,
        0.0,
        0.0,
        2.220446049250313e-16,
        -1.0,
        0.0,
        0.0,
        1.0,
        2.220446049250313e-16,
        0.0,
        0.0,
        0.0,
        0.0,
        1.0
      ],
      "name": "Sketchfab_model"
    },
    {
      "children": [
        2
      ],
      "matrix": [
        0.009999999776482582,
        0.0,
        0.0,
        0.0,
        0.0,
        0.0,
        0.009999999776482582,
        0.0,
        0.0,
        -0.009999999776482582,
        0.0,
        0.0,
        0.0,
        0.0,
        0.0,
        1.0
      ],
      "name": "e533f969dfce4f6da77c872d9afb48ea.fbx"
    },
    {
      "children": [
        3,
        5,
        7,
        9,
        11,
        13,
        15,
        17,
        19,
        21
      ],
      "name": "RootNode"
    },
    {
      "children": [
        4
      ],
      "name": "Plane.001"
    },
    {
      "mesh": 0,
      "name": "Plane.001__0"
    },
    {
      "children": [
        6
      ],
      "name": "Plane.003"
    },
    {
      "mesh": 1,
      "name": "Plane.003__0"
    },
    {
      "children": [
        8
      ],
      "name": "Circle.002"
    },
    {
      "mesh": 2,
      "name": "Circle.002__0"
    },
    {
      "children": [
        10
      ],
      "name": "Circle.003"
    },
    {
      "mesh": 3,
      "name": "Circle.003__0"
    },
    {
      "children": [
        12
      ],
      "name": "Cube.019"
    },
    {
      "mesh": 4,
      "name": "Cube.019__0"
    },
    {
      "children": [
        14
      ],
      "name": "Plane.012"
    },
    {
      "mesh": 5,
      "name": "Plane.012__0"
    },
    {
      "children": [
        16
      ],
      "matrix": [
        1.0,
        0.0,
        0.0,
        0.0,
        0.0,
        1.0,
        0.0,
        0.0,
        0.0,
        0.0,
        1.0,
        0.0,
        0.0,
        -4.931637287139893,
        0.0,
        1.0
      ],
      "name": "Plane.033"
    },
    {
      "mesh": 6,
      "name": "Plane.033__0"
    },
    {
      "children": [
        18
      ],
      "name": "Plane.036"
    },
    {
      "mesh": 7,
      "name": "Plane.036__0"
    },
    {
      "children": [
        20
      ],
      "name": "Plane.041"
    },
    {
      "mesh": 8,
      "name": "Plane.041__0"
    },
    {
      "children": [
        22
      ],
      "name": "plitka_low.018"
    },
    {
      "mesh": 9,
      "name": "plitka_low.018__0"
    }
  ],
  "samplers": [
    {
      "magFilter": 9729,
      "minFilter": 9987,
      "wrapS": 10497,
      "wrapT": 10497
    }
  ],
  "scene": 0,
  "scenes": [
    {
      "name": "Sketchfab_Scene",
      "nodes": [
        0
      ]
    }
  ],
  "textures": [
    {
      "sampler": 0,
      "source": 0
    },
    {
      "sampler": 0,
      "source": 1
    },
    {
      "sampler": 0,
      "source": 2
    }
  ]
}
